<svg xmlns="http://www.w3.org/2000/svg" version="1.1" xmlns:xlink="http://www.w3.org/1999/xlink" xmlns:svgjs="http://svgjs.dev/svgjs" viewBox="0 0 13.601899491298738 6.025029118937848"><g transform="matrix(1,0,0,1,6.100535767637955,1.9300140046038674)"><g><path d=" M 0.24462890625 0.010986328125 L 0.462890625 0.010986328125 L 0.6943359375 1.261962890625 L 0.50244140625 1.261962890625 L 0.468017578125 1.037841796875 L 0.239501953125 1.037841796875 L 0.20654296875 1.261962890625 L 0.013916015625 1.261962890625 L 0.24462890625 0.010986328125 M 0.446044921875 0.89501953125 L 0.358154296875 0.271728515625 L 0.35009765625 0.271728515625 L 0.261474609375 0.89501953125 L 0.446044921875 0.89501953125 M 0.816650390625 0.010986328125 L 1.00634765625 0.010986328125 L 1.00634765625 1.112548828125 L 1.264892578125 1.112548828125 L 1.264892578125 1.261962890625 L 0.816650390625 1.261962890625 L 0.816650390625 0.010986328125 M 1.63916015625 1.273681640625 Q 1.6171875 1.273681640625 1.587890625 1.2689208984375 Q 1.55859375 1.26416015625 1.5274658203125 1.248779296875 Q 1.496337890625 1.2333984375 1.46630859375 1.2052001953125 Q 1.436279296875 1.177001953125 1.4124755859375 1.1304931640625 Q 1.388671875 1.083984375 1.3740234375 1.0162353515625 Q 1.359375 0.948486328125 1.359375 0.854736328125 L 1.359375 0.41162109375 Q 1.359375 0.317138671875 1.374755859375 0.2501220703125 Q 1.39013671875 0.18310546875 1.415771484375 0.1373291015625 Q 1.44140625 0.091552734375 1.4747314453125 0.064453125 Q 1.508056640625 0.037353515625 1.5439453125 0.0230712890625 Q 1.579833984375 0.0087890625 1.614990234375 0.00439453125 Q 1.650146484375 0 1.68017578125 0 Q 1.75634765625 0 1.8087158203125 0.0208740234375 Q 1.861083984375 0.041748046875 1.8936767578125 0.0780029296875 Q 1.92626953125 0.1142578125 1.9405517578125 0.16259765625 Q 1.954833984375 0.2109375 1.954833984375 0.26513671875 Q 1.954833984375 0.305419921875 1.9500732421875 0.3394775390625 Q 1.9453125 0.37353515625 1.937255859375 0.41455078125 L 1.78564453125 0.41455078125 L 1.78564453125 0.355224609375 Q 1.78564453125 0.1494140625 1.675048828125 0.1494140625 Q 1.64501953125 0.1494140625 1.623046875 0.15966796875 Q 1.60107421875 0.169921875 1.58642578125 0.1944580078125 Q 1.57177734375 0.218994140625 1.5648193359375 0.25927734375 Q 1.557861328125 0.299560546875 1.557861328125 0.359619140625 L 1.557861328125 0.926513671875 Q 1.557861328125 0.985107421875 1.5648193359375 1.02392578125 Q 1.57177734375 1.062744140625 1.5860595703125 1.086181640625 Q 1.600341796875 1.109619140625 1.6219482421875 1.1195068359375 Q 1.6435546875 1.12939453125 1.673583984375 1.12939453125 Q 1.705078125 1.12939453125 1.727783203125 1.1129150390625 Q 1.75048828125 1.096435546875 1.76513671875 1.06787109375 Q 1.77978515625 1.039306640625 1.7867431640625 1.00048828125 Q 1.793701171875 0.961669921875 1.793701171875 0.916259765625 L 1.793701171875 0.7529296875 L 1.6962890625 0.7529296875 L 1.6962890625 0.62841796875 L 1.978271484375 0.62841796875 L 1.978271484375 1.261962890625 L 1.852294921875 1.261962890625 L 1.831787109375 1.143310546875 Q 1.7958984375 1.212890625 1.7493896484375 1.2432861328125 Q 1.702880859375 1.273681640625 1.63916015625 1.273681640625 M 2.431640625 1.27294921875 Q 2.401611328125 1.27294921875 2.366455078125 1.2681884765625 Q 2.331298828125 1.263427734375 2.296875 1.248046875 Q 2.262451171875 1.232666015625 2.2305908203125 1.2044677734375 Q 2.19873046875 1.17626953125 2.1741943359375 1.130126953125 Q 2.149658203125 1.083984375 2.135009765625 1.0162353515625 Q 2.120361328125 0.948486328125 2.120361328125 0.854736328125 L 2.120361328125 0.41162109375 Q 2.120361328125 0.317138671875 2.1353759765625 0.2501220703125 Q 2.150390625 0.18310546875 2.17529296875 0.1373291015625 Q 2.2001953125 0.091552734375 2.2320556640625 0.064453125 Q 2.263916015625 0.037353515625 2.2987060546875 0.0230712890625 Q 2.33349609375 0.0087890625 2.367919921875 0.00439453125 Q 2.40234375 0 2.431640625 0 Q 2.45947265625 0 2.4935302734375 0.0040283203125 Q 2.527587890625 0.008056640625 2.5616455078125 0.0216064453125 Q 2.595703125 0.03515625 2.6279296875 0.0618896484375 Q 2.66015625 0.088623046875 2.68505859375 0.1343994140625 Q 2.7099609375 0.18017578125 2.7249755859375 0.2479248046875 Q 2.739990234375 0.315673828125 2.739990234375 0.41162109375 L 2.739990234375 0.854736328125 Q 2.739990234375 0.94775390625 2.724609375 1.0147705078125 Q 2.709228515625 1.081787109375 2.684326171875 1.1282958984375 Q 2.659423828125 1.1748046875 2.6268310546875 1.2030029296875 Q 2.59423828125 1.231201171875 2.5601806640625 1.2469482421875 Q 2.526123046875 1.2626953125 2.492431640625 1.267822265625 Q 2.458740234375 1.27294921875 2.431640625 1.27294921875 M 2.431640625 1.130126953125 Q 2.45947265625 1.130126953125 2.4803466796875 1.12060546875 Q 2.501220703125 1.111083984375 2.5147705078125 1.087646484375 Q 2.5283203125 1.064208984375 2.5352783203125 1.0257568359375 Q 2.542236328125 0.9873046875 2.542236328125 0.9287109375 L 2.542236328125 0.359619140625 Q 2.542236328125 0.299560546875 2.5352783203125 0.25927734375 Q 2.5283203125 0.218994140625 2.5147705078125 0.1944580078125 Q 2.501220703125 0.169921875 2.4803466796875 0.15966796875 Q 2.45947265625 0.1494140625 2.431640625 0.1494140625 Q 2.403076171875 0.1494140625 2.3818359375 0.15966796875 Q 2.360595703125 0.169921875 2.3466796875 0.1944580078125 Q 2.332763671875 0.218994140625 2.3258056640625 0.25927734375 Q 2.31884765625 0.299560546875 2.31884765625 0.359619140625 L 2.31884765625 0.9287109375 Q 2.31884765625 0.9873046875 2.3258056640625 1.0257568359375 Q 2.332763671875 1.064208984375 2.3466796875 1.087646484375 Q 2.360595703125 1.111083984375 2.3818359375 1.12060546875 Q 2.403076171875 1.130126953125 2.431640625 1.130126953125 M 3.380859375 0.010986328125 L 3.59912109375 0.010986328125 L 3.83056640625 1.261962890625 L 3.638671875 1.261962890625 L 3.604248046875 1.037841796875 L 3.375732421875 1.037841796875 L 3.3427734375 1.261962890625 L 3.150146484375 1.261962890625 L 3.380859375 0.010986328125 M 3.582275390625 0.89501953125 L 3.494384765625 0.271728515625 L 3.486328125 0.271728515625 L 3.397705078125 0.89501953125 L 3.582275390625 0.89501953125 M 3.952880859375 0.010986328125 L 4.15869140625 0.010986328125 Q 4.19384765625 0.010986328125 4.2359619140625 0.013916015625 Q 4.278076171875 0.016845703125 4.3201904296875 0.0281982421875 Q 4.3623046875 0.03955078125 4.4014892578125 0.062255859375 Q 4.440673828125 0.0849609375 4.4710693359375 0.12451171875 Q 4.50146484375 0.1640625 4.519775390625 0.2237548828125 Q 4.5380859375 0.283447265625 4.5380859375 0.368408203125 L 4.5380859375 0.39990234375 Q 4.5380859375 0.542724609375 4.4970703125 0.6324462890625 Q 4.4560546875 0.72216796875 4.376220703125 0.76171875 L 4.576904296875 1.261962890625 L 4.376220703125 1.261962890625 L 4.2099609375 0.7939453125 L 4.138916015625 0.7939453125 L 4.138916015625 1.261962890625 L 3.952880859375 1.261962890625 L 3.952880859375 0.010986328125 M 4.16748046875 0.656982421875 Q 4.21728515625 0.656982421875 4.251708984375 0.64599609375 Q 4.2861328125 0.635009765625 4.307373046875 0.6090087890625 Q 4.32861328125 0.5830078125 4.338134765625 0.5401611328125 Q 4.34765625 0.497314453125 4.34765625 0.434326171875 L 4.34765625 0.33544921875 Q 4.34765625 0.287109375 4.3388671875 0.251953125 Q 4.330078125 0.216796875 4.3092041015625 0.194091796875 Q 4.288330078125 0.17138671875 4.25390625 0.160400390625 Q 4.219482421875 0.1494140625 4.16748046875 0.1494140625 L 4.138916015625 0.1494140625 L 4.138916015625 0.656982421875 L 4.16748046875 0.656982421875 M 4.721923828125 0.010986328125 L 5.185546875 0.010986328125 L 5.185546875 0.160400390625 L 4.91162109375 0.160400390625 L 4.91162109375 0.53466796875 L 5.123291015625 0.53466796875 L 5.123291015625 0.68408203125 L 4.91162109375 0.68408203125 L 4.91162109375 1.112548828125 L 5.19287109375 1.112548828125 L 5.19287109375 1.261962890625 L 4.721923828125 1.261962890625 L 4.721923828125 0.010986328125 M 5.331298828125 0.010986328125 L 5.485107421875 0.010986328125 L 5.788330078125 0.84814453125 L 5.792724609375 0.84814453125 Q 5.79052734375 0.81884765625 5.786865234375 0.782958984375 Q 5.783203125 0.7470703125 5.7802734375 0.7012939453125 Q 5.77734375 0.655517578125 5.775146484375 0.59765625 Q 5.77294921875 0.539794921875 5.77294921875 0.46728515625 L 5.77294921875 0.010986328125 L 5.94287109375 0.010986328125 L 5.94287109375 1.261962890625 L 5.78759765625 1.261962890625 L 5.48583984375 0.44677734375 L 5.47998046875 0.44677734375 Q 5.482177734375 0.479736328125 5.48583984375 0.5181884765625 Q 5.489501953125 0.556640625 5.492431640625 0.608642578125 Q 5.495361328125 0.66064453125 5.49755859375 0.7298583984375 Q 5.499755859375 0.799072265625 5.499755859375 0.894287109375 L 5.499755859375 1.261962890625 L 5.331298828125 1.261962890625 L 5.331298828125 0.010986328125 M 6.2958984375 0.010986328125 L 6.51416015625 0.010986328125 L 6.74560546875 1.261962890625 L 6.5537109375 1.261962890625 L 6.519287109375 1.037841796875 L 6.290771484375 1.037841796875 L 6.2578125 1.261962890625 L 6.065185546875 1.261962890625 L 6.2958984375 0.010986328125 M 6.497314453125 0.89501953125 L 6.409423828125 0.271728515625 L 6.4013671875 0.271728515625 L 6.312744140625 0.89501953125 L 6.497314453125 0.89501953125" fill="#0e1425" fill-rule="nonzero"></path></g><g><path d=" M 0.23803710937499997 2.0275055486505678 Q 0.23803710937499997 2.0165192205255678 0.24353027343749997 2.010360218394886 Q 0.24902343749999997 2.004201216264204 0.25618119673295453 2.004201216264204 Q 0.26333895596590906 2.004201216264204 0.26883212002840906 2.009361461292613 Q 0.27432528409090906 2.0145217063210223 0.27365944602272724 2.0251751154119315 Q 0.2703302556818182 2.092424760298295 0.23737127130681818 2.133373801491477 Q 0.2057439630681818 2.172658247514204 0.1581365411931818 2.172658247514204 Q 0.06824840198863635 2.172658247514204 0.041947798295454544 2.038158957741477 Q 0.03196022727272727 1.9885540216619313 0.03196022727272727 1.9211379172585223 Q 0.03196022727272727 1.8537218128551132 0.040283203125 1.800954145951704 Q 0.04860617897727272 1.748186479048295 0.06558504971590909 1.7092349520596586 Q 0.10187322443181818 1.6260051935369315 0.16878995028409088 1.6260051935369315 Q 0.2207253196022727 1.6260051935369315 0.24569424715909088 1.6669542347301132 Q 0.2719948508522727 1.7105666281960223 0.2719948508522727 1.8094435813210223 Q 0.2719948508522727 1.8204299094460223 0.26700106534090906 1.8259230735085223 Q 0.2620072798295454 1.8314162375710223 0.25501598011363635 1.8314162375710223 Q 0.23970170454545453 1.8314162375710223 0.23970170454545453 1.8121069335937496 Q 0.23970170454545453 1.6889268909801132 0.20041725852272727 1.6652896395596586 Q 0.1864346590909091 1.656966663707386 0.16779119318181818 1.656966663707386 Q 0.14914772727272727 1.656966663707386 0.1343328302556818 1.6674536132812496 Q 0.11951793323863635 1.6779405628551132 0.10803222656249999 1.6964175692471586 Q 0.09654651988636363 1.714894575639204 0.0882235440340909 1.7400299627130678 Q 0.07990056818181818 1.7651653497869315 0.07457386363636363 1.7941293057528405 Q 0.06392045454545454 1.8527230557528405 0.06392045454545454 1.9098186700994313 Q 0.06392045454545454 1.9669142844460223 0.06758256392045454 2.0013714044744315 Q 0.07124467329545454 2.0358285245028407 0.07790305397727272 2.0602980735085223 Q 0.0845614346590909 2.084767622514204 0.0937167080965909 2.1002483575994315 Q 0.1028719815340909 2.1157290926846586 0.1138583096590909 2.124717906605113 Q 0.1325017755681818 2.140365101207386 0.16146573153409088 2.140365101207386 Q 0.1937588778409091 2.140365101207386 0.21439985795454544 2.114064497514204 Q 0.2387029474431818 2.0837688654119315 0.23803710937499997 2.0275055486505678 M 0.5544766512784091 1.7947951438210223 L 0.5541437322443181 1.7421939364346586 Q 0.5541437322443181 1.729543013139204 0.5539772727272727 1.7150610351562496 Q 0.5538108132102273 1.700579057173295 0.5536443536931818 1.683766645951704 Q 0.5534778941761364 1.6669542347301132 0.5531449751420454 1.651140580610795 Q 0.5528120561079545 1.635326926491477 0.5588045987215908 1.6303331409801132 Q 0.5647971413352273 1.6253393554687494 0.5714555220170454 1.6253393554687494 Q 0.5781139026988635 1.6253393554687494 0.5836070667613635 1.6303331409801132 Q 0.5891002308238635 1.635326926491477 0.5887673117897727 1.645980335582386 Q 0.5834406072443181 1.8307503995028405 0.5834406072443181 1.935619895241477 Q 0.5834406072443181 2.1044098455255678 0.5857710404829545 2.144027210582386 Q 0.5864368785511362 2.154680619673295 0.5809437144886362 2.1600073242187494 Q 0.5754505504261362 2.165334028764204 0.5689586292613635 2.165334028764204 Q 0.5624667080965908 2.165334028764204 0.5573064630681818 2.160173783735795 Q 0.5521462180397727 2.155013538707386 0.5524791370738635 2.144360129616477 Q 0.5538108132102273 2.0348297674005678 0.5544766512784091 1.9562608753551132 Q 0.5248468572443181 1.9535975230823859 0.4735773259943181 1.9535975230823859 Q 0.4203102805397727 1.9535975230823859 0.3946755149147727 1.956593794389204 Q 0.3950084339488636 2.0571353426846586 0.39700594815340906 2.1423626154119315 Q 0.3973388671875 2.1533489435369315 0.3913463245738636 2.159008567116477 Q 0.38535378196022724 2.1646681906960223 0.3785289417613636 2.1646681906960223 Q 0.3717041015625 2.1646681906960223 0.3663773970170454 2.159507945667613 Q 0.3610506924715909 2.154347700639204 0.3617165305397727 2.136037153764204 Q 0.36238236860795453 2.117726606889204 0.36304820667613635 2.0834359463778402 Q 0.3637140447443182 2.049145285866477 0.3643798828125 2.0105266779119315 Q 0.36504572088068177 1.945607466264204 0.36504572088068177 1.8776919833096586 Q 0.36504572088068177 1.8097765003551132 0.36487926136363635 1.7819777610085223 Q 0.3647128018465909 1.7541790216619315 0.3643798828125 1.7312076083096586 Q 0.36338112571022724 1.6952523526278405 0.36038485440340906 1.6479778497869315 Q 0.35971901633522724 1.6373244406960223 0.3657115589488636 1.6321641956676132 Q 0.3717041015625 1.627003950639204 0.3790283203125 1.627003950639204 Q 0.3863525390625 1.627003950639204 0.39234508167613635 1.6321641956676132 Q 0.3983376242897727 1.6373244406960223 0.3976717862215909 1.6528051757812494 Q 0.39700594815340906 1.668285910866477 0.39634011008522724 1.690258567116477 Q 0.3956742720170454 1.712231223366477 0.39534135298295453 1.738698286576704 Q 0.3950084339488636 1.7651653497869315 0.3950084339488636 1.7974584960937496 Q 0.3946755149147727 1.8277541281960223 0.3946755149147727 1.9249664861505678 Q 0.4166481711647727 1.928295676491477 0.4742431640625 1.928295676491477 Q 0.5295077237215908 1.928295676491477 0.5544766512784091 1.9249664861505678 Q 0.5544766512784091 1.9123155628551132 0.5544766512784091 1.9006633966619313 L 0.5544766512784091 1.7947951438210223 M 0.7930131392045454 1.6253393554687494 Q 0.8010031960227273 1.6253393554687494 0.8076615767045454 1.6319977361505678 Q 0.8143199573863636 1.638656116832386 0.8181485262784091 1.6597964754971586 Q 0.8219770951704546 1.6809368341619315 0.8298006924715909 1.7202212801846586 Q 0.8376242897727273 1.7595057262073859 0.8472789417613636 1.8041168767755678 Q 0.85693359375 1.8487280273437496 0.8675870028409091 1.896168989701704 Q 0.8782404119318181 1.9436099520596586 0.8888938210227273 1.9882211026278405 Q 0.9145285866477273 2.092757679332386 0.9288441051136364 2.1410309392755678 Q 0.9321732954545454 2.1533489435369315 0.9270130504261364 2.1606731622869315 Q 0.9218528053977273 2.1679973810369315 0.91552734375 2.1679973810369315 Q 0.9092018821022727 2.1679973810369315 0.9040416370738636 2.1643352716619315 Q 0.8988813920454546 2.1606731622869315 0.8948863636363636 2.1426955344460223 Q 0.8908913352272727 2.124717906605113 0.8819025213068181 2.084434703480113 Q 0.8729137073863636 2.044151500355113 0.8625932173295454 1.997875754616477 Q 0.8622602982954546 1.9958782404119313 0.8619273792613636 1.994213645241477 Q 0.8392888849431819 1.993214888139204 0.7980069247159091 1.993214888139204 Q 0.7494007457386364 1.993214888139204 0.7237659801136364 1.9945465642755678 Q 0.7234330610795454 1.9965440784801132 0.7231001420454546 1.9985415926846586 Q 0.7027920809659091 2.096419788707386 0.6931374289772727 2.1500197531960223 Q 0.6898082386363636 2.1669986239346586 0.6754927201704546 2.1669986239346586 Q 0.6605113636363636 2.1669986239346586 0.6571821732954546 2.1523501864346586 Q 0.6561834161931819 2.148022238991477 0.6591796875 2.1387005060369315 Q 0.6621759588068182 2.129378773082386 0.6680020419034091 2.1065738192471586 Q 0.673828125 2.0837688654119315 0.6806529651988636 2.054305530894886 Q 0.6874778053977273 2.0248421963778407 0.6951349431818182 1.989885697798295 Q 0.7027920809659091 1.9549291992187496 0.7107821377840909 1.9179751864346586 Q 0.7187721946022727 1.8810211736505678 0.7267622514204546 1.8435677823153405 Q 0.7347523082386364 1.8061143909801132 0.7420765269886364 1.7711578924005678 Q 0.7494007457386364 1.7362013938210223 0.7558926669034091 1.7055728426846586 Q 0.7623845880681819 1.674944291548295 0.7663796164772727 1.656966663707386 Q 0.772705078125 1.6253393554687494 0.7930131392045454 1.6253393554687494 M 0.7300914417613636 1.9635850941051132 Q 0.7553932883522727 1.964916770241477 0.79833984375 1.964916770241477 Q 0.8339621803977273 1.964916770241477 0.8552689985795454 1.963918013139204 Q 0.8482776988636364 1.9336223810369313 0.8412863991477273 1.901662153764204 Q 0.8303000710227273 1.8520572176846586 0.8203125 1.8054485529119315 Q 0.8036665482954546 1.7292100941051132 0.7916814630681819 1.6716151012073859 Q 0.7840243252840909 1.7099007901278405 0.7697088068181819 1.7758187588778405 Q 0.7510653409090909 1.8637093838778405 0.7414106889204546 1.9096522105823859 Q 0.7357510653409091 1.9372844904119313 0.7300914417613636 1.9635850941051132 M 1.020230379971591 1.624007679332386 Q 1.0405384410511365 1.624007679332386 1.0405384410511365 1.652971635298295 Q 1.0405384410511365 1.6922560813210223 1.0400390625 1.7357020152698859 Q 1.0395396839488638 1.7791479492187496 1.0392067649147727 1.8144373668323859 Q 1.0388738458806819 1.8497267844460223 1.038540926846591 1.8966683682528405 Q 1.0378750887784092 1.994213645241477 1.0372092507102273 2.136037153764204 Q 1.1034601384943183 2.1373688299005678 1.1643843217329546 2.1313762872869315 Q 1.1763694069602273 2.1300446111505678 1.1830277876420454 2.136370072798295 Q 1.1896861683238638 2.1426955344460223 1.1896861683238638 2.1496868341619315 Q 1.1896861683238638 2.1566781338778402 1.1836936257102273 2.1618383789062494 Q 1.1777010830965908 2.1669986239346586 1.1660489169034092 2.166332785866477 Q 1.1280961470170454 2.1633365145596586 1.084317294034091 2.165001109730113 Q 1.0405384410511365 2.1666657049005678 1.0315496271306819 2.1679973810369315 Q 1.0225608132102273 2.169329057173295 1.018399325284091 2.1684967595880678 Q 1.0142378373579546 2.1676644620028402 1.0109086470170454 2.165001109730113 Q 1.0035844282670454 2.1593414861505678 1.0042502663352273 2.1483551580255678 Q 1.0082452947443183 2.070452104048295 1.0082452947443183 1.944775168678977 Q 1.0082452947443183 1.8190982333096586 1.0080788352272727 1.7893019797585223 Q 1.0079123757102273 1.7595057262073859 1.0072465376420454 1.7345367986505678 Q 1.0059148615056819 1.6849318625710223 1.0015869140625 1.645314497514204 Q 1.0005881569602273 1.634661088423295 1.0065806995738638 1.6293343838778405 Q 1.0125732421875 1.624007679332386 1.020230379971591 1.624007679332386 M 1.2750799005681819 1.624007679332386 Q 1.2953879616477273 1.624007679332386 1.2953879616477273 1.652971635298295 Q 1.2953879616477273 1.6922560813210223 1.2948885830965908 1.7357020152698859 Q 1.2943892045454546 1.7791479492187496 1.2940562855113635 1.8144373668323859 Q 1.2937233664772727 1.8497267844460223 1.2933904474431819 1.8966683682528405 Q 1.292724609375 1.994213645241477 1.2920587713068181 2.136037153764204 Q 1.3583096590909092 2.1373688299005678 1.4192338423295454 2.1313762872869315 Q 1.4312189275568181 2.1300446111505678 1.4378773082386362 2.136370072798295 Q 1.4445356889204546 2.1426955344460223 1.4445356889204546 2.1496868341619315 Q 1.4445356889204546 2.1566781338778402 1.4385431463068181 2.1618383789062494 Q 1.4325506036931817 2.1669986239346586 1.4208984375 2.166332785866477 Q 1.3829456676136362 2.1633365145596586 1.3391668146306819 2.165001109730113 Q 1.2953879616477273 2.1666657049005678 1.2863991477272727 2.1679973810369315 Q 1.2774103338068181 2.169329057173295 1.2732488458806819 2.1684967595880678 Q 1.2690873579545454 2.1676644620028402 1.2657581676136362 2.165001109730113 Q 1.2584339488636362 2.1593414861505678 1.2590997869318181 2.1483551580255678 Q 1.2630948153409092 2.070452104048295 1.2630948153409092 1.944775168678977 Q 1.2630948153409092 1.8190982333096586 1.2629283558238635 1.7893019797585223 Q 1.2627618963068181 1.7595057262073859 1.2620960582386362 1.7345367986505678 Q 1.2607643821022727 1.6849318625710223 1.2564364346590908 1.645314497514204 Q 1.2554376775568181 1.634661088423295 1.2614302201704546 1.6293343838778405 Q 1.2674227627840908 1.624007679332386 1.2750799005681819 1.624007679332386 M 1.5465753728693181 1.982228560014204 L 1.5472412109375 2.100414817116477 Q 1.5472412109375 2.1163949307528402 1.5472412109375 2.1277141779119315 Q 1.5475741299715908 2.132707963423295 1.5475741299715908 2.136370072798295 Q 1.6314697265625 2.136370072798295 1.6591020063920454 2.1337067205255678 Q 1.6877330433238635 2.1307104492187494 1.6923939098011362 2.132042125355113 Q 1.697054776278409 2.133373801491477 1.7003839666193181 2.136370072798295 Q 1.7070423473011362 2.1423626154119315 1.7070423473011362 2.149520374644886 Q 1.7070423473011362 2.1566781338778402 1.700716885653409 2.1618383789062494 Q 1.6943914240056817 2.1669986239346586 1.6830721768465908 2.166332785866477 Q 1.6284734552556817 2.162004838423295 1.5845281427556817 2.1648346502130678 Q 1.5405828302556817 2.1676644620028402 1.535256125710227 2.1684967595880678 Q 1.5299294211647727 2.169329057173295 1.5257679332386362 2.1684967595880678 Q 1.5216064453125 2.1676644620028402 1.5182772549715908 2.165001109730113 Q 1.5106201171875 2.1593414861505678 1.5112859552556817 2.1483551580255678 Q 1.5162797407670454 2.052141557173295 1.5162797407670454 1.9354534357244313 Q 1.5162797407670454 1.8187653142755678 1.5164462002840908 1.7886361416903405 Q 1.5166126598011362 1.7585069691051132 1.5166126598011362 1.733538041548295 Q 1.5159468217329544 1.6799380770596586 1.5142822265625 1.6577989612926132 Q 1.5126176313920454 1.6356598455255678 1.515114524147727 1.631331898082386 Q 1.517611416903409 1.627003950639204 1.521273526278409 1.6250064364346586 Q 1.5262673117897727 1.6226760031960223 1.5339244495738635 1.624007679332386 Q 1.5479070490056817 1.6263381125710223 1.5708784623579544 1.6263381125710223 Q 1.6151566938920454 1.6263381125710223 1.6313032670454544 1.6245070578835223 Q 1.6474498401988635 1.6226760031960223 1.6521107066761362 1.6241741388494315 Q 1.656771573153409 1.6256722745028405 1.659767844460227 1.6283356267755678 Q 1.6664262251420454 1.6336623313210223 1.6664262251420454 1.6413194691051132 Q 1.6664262251420454 1.648976606889204 1.660433682528409 1.6539703924005678 Q 1.6544411399147727 1.6589641779119315 1.6441206498579544 1.658464799360795 Q 1.6338001598011362 1.6579654208096586 1.6221479936079544 1.6571331232244315 Q 1.6104958274147727 1.656300825639204 1.5971790660511362 1.6556349875710223 Q 1.5692138671875 1.6546362304687494 1.5485728870738635 1.656300825639204 Q 1.5485728870738635 1.6852647816051132 1.5482399680397727 1.7138958185369315 Q 1.5479070490056817 1.747853560014204 1.5475741299715908 1.7828100585937496 Q 1.5465753728693181 1.8766932262073859 1.5465753728693181 1.9213043767755678 Q 1.5881902521306817 1.9213043767755678 1.6078324751420454 1.9193068625710223 Q 1.6291392933238635 1.9169764293323859 1.6346324573863635 1.9213043767755678 Q 1.6401256214488635 1.9256323242187496 1.6401256214488635 1.9329565429687496 Q 1.6401256214488635 1.9512670898437496 1.6058349609375 1.9506012517755678 Q 1.5988436612215908 1.950268332741477 1.5931840376420454 1.950268332741477 L 1.5662175958806817 1.9499354137073859 L 1.5465753728693181 1.9499354137073859 L 1.5465753728693181 1.982228560014204 M 2.0198197798295454 1.6433169833096586 Q 2.017822265625 1.8091106622869315 2.017822265625 1.877858442826704 Q 2.017822265625 1.946606223366477 2.0179887251420454 1.9787329101562496 Q 2.018155184659091 2.0108595969460223 2.0184881036931817 2.0398235529119315 Q 2.0191539417613633 2.1010806551846586 2.019986239346591 2.123552689985795 Q 2.020818536931818 2.1460247247869315 2.0188210227272725 2.150352672230113 Q 2.016823508522727 2.154680619673295 2.013494318181818 2.157676890980113 Q 1.9998446377840908 2.169994895241477 1.984530362215909 2.1600073242187494 Q 1.9785378196022727 2.1560122958096586 1.9758744673295454 2.148022238991477 Q 1.9465775923295454 2.0621291281960223 1.9052956321022727 1.9614211203835223 Q 1.864013671875 1.8607131125710223 1.8477006392045454 1.8190982333096586 Q 1.8180708451704544 1.7435256125710223 1.7960981889204544 1.6806039151278405 L 1.8004261363636362 2.1450259676846586 Q 1.8004261363636362 2.155346457741477 1.7950994318181817 2.1603402432528402 Q 1.789772727272727 2.165334028764204 1.7829478870738635 2.165334028764204 Q 1.776123046875 2.165334028764204 1.770296963778409 2.159840864701704 Q 1.7644708806818181 2.154347700639204 1.764803799715909 2.143361372514204 Q 1.7681329900568181 2.051808638139204 1.7681329900568181 1.934621138139204 L 1.7681329900568181 1.737200150923295 Q 1.7681329900568181 1.685597700639204 1.7674671519886362 1.6483107688210223 Q 1.7674671519886362 1.6359927645596586 1.7749578302556817 1.629500843394886 Q 1.782448508522727 1.6230089222301132 1.790771484375 1.6230089222301132 Q 1.8094149502840908 1.6230089222301132 1.815407492897727 1.6406536310369315 Q 1.8214000355113635 1.6582983398437494 1.8323863636363635 1.6880945933948859 Q 1.8433726917613635 1.7178908469460223 1.8570223721590908 1.754345481178977 Q 1.8706720525568181 1.7908001154119315 1.8863192471590908 1.8315826970880678 Q 1.9019664417613635 1.872365278764204 1.9176136363636362 1.9128149414062496 Q 1.933260830965909 1.953264604048295 1.947909268465909 1.9912173739346586 Q 1.962557705965909 2.0291701438210223 1.9745427911931817 2.060131613991477 Q 1.9865278764204544 2.0910930841619315 1.994850852272727 2.1130657404119315 Q 1.9951837713068181 2.114064497514204 1.995516690340909 2.114730335582386 Q 1.9928533380681817 2.0494782049005678 1.991188742897727 1.9725739080255678 Q 1.9895241477272727 1.8790236594460223 1.9883589311079544 1.832414994673295 Q 1.9871937144886362 1.7858063299005678 1.9860284978693181 1.7380324485085223 Q 1.98486328125 1.690258567116477 1.9831986860795454 1.6433169833096586 Q 1.9831986860795454 1.6326635742187494 1.9890247691761362 1.6275033291903405 Q 1.994850852272727 1.6223430841619315 2.0018421519886362 1.6223430841619315 Q 2.0088334517045454 1.6223430841619315 2.0143266157670454 1.6275033291903405 Q 2.0198197798295454 1.6326635742187494 2.0198197798295454 1.6433169833096586 M 2.343583540482954 1.777483354048295 Q 2.3442493785511362 1.799456010298295 2.3286021839488633 1.799456010298295 Q 2.3219438032670454 1.799456010298295 2.316617098721591 1.794628684303977 Q 2.3112903941761362 1.7898013583096586 2.3112903941761362 1.7801467063210223 Q 2.3112903941761362 1.675610129616477 2.266679243607954 1.6582983398437494 Q 2.2526966441761362 1.652971635298295 2.230224609375 1.6546362304687494 Q 2.2077525745738633 1.656300825639204 2.1886097301136362 1.6751107510653405 Q 2.1694668856534087 1.693920676491477 2.1574818004261362 1.7255479847301132 Q 2.1348433061079546 1.784807572798295 2.1348433061079546 1.8900099875710223 Q 2.1348433061079546 2.1130657404119315 2.208085493607954 2.135704234730113 Q 2.220403497869318 2.139366344105113 2.233720259232954 2.139366344105113 Q 2.298306551846591 2.139366344105113 2.3126220703125 2.0178508966619315 Q 2.3169500177556817 1.978566450639204 2.316617098721591 1.9615875799005678 Q 2.2869873046875 1.9599229847301132 2.2673450816761362 1.9622534179687496 Q 2.245705344460227 1.964916770241477 2.2377152876420454 1.964916770241477 Q 2.2297252308238633 1.964916770241477 2.2248979048295454 1.9592571466619313 Q 2.220070578835227 1.9535975230823859 2.220070578835227 1.9467726828835223 Q 2.220070578835227 1.9399478426846586 2.225064364346591 1.934621138139204 Q 2.230058149857954 1.9292944335937496 2.240545099431818 1.9307925692471586 Q 2.2510320490056817 1.9322907049005678 2.2613525390625 1.9322907049005678 L 2.2806618430397725 1.9322907049005678 Q 2.2979736328125 1.9322907049005678 2.306962446732954 1.930959028764204 Q 2.322609641335227 1.9286285955255678 2.330266779119318 1.9286285955255678 Q 2.3475785688920454 1.9286285955255678 2.3475785688920454 1.9482708185369313 Q 2.3475785688920454 2.0531403142755678 2.316617098721591 2.1127328213778402 Q 2.284989790482954 2.172658247514204 2.2307239879261362 2.172658247514204 Q 2.165138938210227 2.172658247514204 2.1338445490056817 2.103744007457386 Q 2.1022172407670454 2.033498091264204 2.1022172407670454 1.883684525923295 Q 2.1022172407670454 1.6300002219460223 2.2370494495738633 1.6223430841619315 Q 2.343583540482954 1.616683460582386 2.343583540482954 1.777483354048295 M 2.4695933948863633 1.982228560014204 L 2.470259232954545 2.100414817116477 Q 2.470259232954545 2.1163949307528402 2.470259232954545 2.1277141779119315 Q 2.470592151988636 2.132707963423295 2.470592151988636 2.136370072798295 Q 2.554487748579545 2.136370072798295 2.5821200284090904 2.1337067205255678 Q 2.6107510653409087 2.1307104492187494 2.6154119318181817 2.132042125355113 Q 2.620072798295454 2.133373801491477 2.6234019886363633 2.136370072798295 Q 2.6300603693181817 2.1423626154119315 2.6300603693181817 2.149520374644886 Q 2.6300603693181817 2.1566781338778402 2.623734907670454 2.1618383789062494 Q 2.617409446022727 2.1669986239346586 2.606090198863636 2.166332785866477 Q 2.551491477272727 2.162004838423295 2.507546164772727 2.1648346502130678 Q 2.463600852272727 2.1676644620028402 2.4582741477272725 2.1684967595880678 Q 2.452947443181818 2.169329057173295 2.4487859552556817 2.1684967595880678 Q 2.444624467329545 2.1676644620028402 2.441295276988636 2.165001109730113 Q 2.433638139204545 2.1593414861505678 2.434303977272727 2.1483551580255678 Q 2.4392977627840904 2.052141557173295 2.4392977627840904 1.9354534357244313 Q 2.4392977627840904 1.8187653142755678 2.439464222301136 1.7886361416903405 Q 2.4396306818181817 1.7585069691051132 2.4396306818181817 1.733538041548295 Q 2.4389648437499996 1.6799380770596586 2.437300248579545 1.6577989612926132 Q 2.4356356534090904 1.6356598455255678 2.4381325461647725 1.631331898082386 Q 2.440629438920454 1.627003950639204 2.444291548295454 1.6250064364346586 Q 2.449285333806818 1.6226760031960223 2.4569424715909087 1.624007679332386 Q 2.470925071022727 1.6263381125710223 2.4938964843749996 1.6263381125710223 Q 2.5381747159090904 1.6263381125710223 2.5543212890624996 1.6245070578835223 Q 2.5704678622159087 1.6226760031960223 2.5751287286931817 1.6241741388494315 Q 2.579789595170454 1.6256722745028405 2.5827858664772725 1.6283356267755678 Q 2.5894442471590904 1.6336623313210223 2.5894442471590904 1.6413194691051132 Q 2.5894442471590904 1.648976606889204 2.583451704545454 1.6539703924005678 Q 2.577459161931818 1.6589641779119315 2.5671386718749996 1.658464799360795 Q 2.5568181818181817 1.6579654208096586 2.5451660156249996 1.6571331232244315 Q 2.533513849431818 1.656300825639204 2.5201970880681817 1.6556349875710223 Q 2.492231889204545 1.6546362304687494 2.4715909090909087 1.656300825639204 Q 2.4715909090909087 1.6852647816051132 2.471257990056818 1.7138958185369315 Q 2.470925071022727 1.747853560014204 2.470592151988636 1.7828100585937496 Q 2.4695933948863633 1.8766932262073859 2.4695933948863633 1.9213043767755678 Q 2.511208274147727 1.9213043767755678 2.5308504971590904 1.9193068625710223 Q 2.5521573153409087 1.9169764293323859 2.5576504794034087 1.9213043767755678 Q 2.5631436434659087 1.9256323242187496 2.5631436434659087 1.9329565429687496 Q 2.5631436434659087 1.9512670898437496 2.528852982954545 1.9506012517755678 Q 2.521861683238636 1.950268332741477 2.5162020596590904 1.950268332741477 L 2.489235617897727 1.9499354137073859 L 2.4695933948863633 1.9499354137073859 L 2.4695933948863633 1.982228560014204 M 2.9396750710227266 2.0471477716619315 L 2.942005504261363 2.144027210582386 Q 2.942005504261363 2.159008567116477 2.9276899857954537 2.1643352716619315 Q 2.9240278764204537 2.165666947798295 2.91903409090909 2.165666947798295 Q 2.9140403053977266 2.165666947798295 2.908380681818181 2.160173783735795 Q 2.902721058238636 2.154680619673295 2.9037198153409083 2.1428619939630678 Q 2.904718572443181 2.1310433682528402 2.9060502485795445 2.1193912020596586 Q 2.9073819247159083 2.107739035866477 2.908380681818181 2.095753950639204 Q 2.9107111150568175 2.0677887517755678 2.9107111150568175 2.052141557173295 Q 2.9107111150568175 2.0364943625710223 2.9103781960227266 2.0251751154119315 Q 2.910045276988636 2.0138558682528407 2.9093794389204537 2.0018707830255678 Q 2.909046519886363 1.9922161310369313 2.908380681818181 1.9802310458096586 Q 2.897394353693181 1.9522658469460223 2.8840775923295445 1.9206385387073859 Q 2.8670987215909083 1.8793565784801132 2.8487881747159083 1.8347454279119315 Q 2.773548473011363 1.653637473366477 2.773548473011363 1.638656116832386 Q 2.773548473011363 1.6303331409801132 2.7785422585227266 1.6253393554687494 Q 2.78353604403409 1.620345569957386 2.7913596413352266 1.620012650923295 Q 2.799183238636363 1.619679731889204 2.8035111860795445 1.625172895951704 Q 2.8078391335227266 1.630666060014204 2.8163285688920445 1.659962935014204 Q 2.824818004261363 1.689259810014204 2.8414639559659083 1.735369096235795 Q 2.8581099076704537 1.7814783824573859 2.87508877840909 1.8234261807528405 Q 2.897394353693181 1.8790236594460223 2.9253595525568175 1.9416124378551132 Q 2.930353338068181 1.9279627574573859 2.9360129616477266 1.912648481889204 Q 2.945667613636363 1.8876795543323859 2.955821644176136 1.8602137340198859 Q 2.9659756747159083 1.8327479137073859 2.976462624289772 1.8039504172585223 Q 2.986949573863636 1.7751529208096586 2.996604225852272 1.7475206409801132 Q 3.019908558238636 1.6799380770596586 3.026234019886363 1.6574660422585223 Q 3.03255948153409 1.634994007457386 3.036887428977272 1.6265045720880678 Q 3.0412153764204537 1.6180151367187494 3.0498712713068175 1.6180151367187494 Q 3.065851384943181 1.6180151367187494 3.065851384943181 1.6336623313210223 Q 3.065851384943181 1.645647416548295 3.042047674005681 1.707570356889204 Q 3.018243963068181 1.7694932972301132 3.0114191228693175 1.7889690607244315 Q 3.0045942826704537 1.8084448242187496 2.9982688210227266 1.8255901544744315 Q 2.991943359374999 1.8427354847301132 2.984619140624999 1.8622112482244313 Q 2.977294921874999 1.8816870117187496 2.969471324573863 1.9021615323153405 Q 2.9616477272727266 1.9226360529119313 2.9546564275568175 1.9412795188210223 Q 2.946666370738636 1.961254660866477 2.941339666193181 1.974904341264204 Q 2.9396750710227266 2.034163929332386 2.9396750710227266 2.0471477716619315 M 3.2457941228693175 2.172658247514204 Q 3.1762140447443175 2.172658247514204 3.143421519886363 2.1007477361505678 Q 3.1106289950284083 2.0288372247869315 3.1106289950284083 1.8883453924005678 Q 3.1106289950284083 1.777483354048295 3.148248845880681 1.7022436523437496 Q 3.166892311789772 1.6656225585937496 3.1935258345170445 1.643816361860795 Q 3.2201593572443175 1.6220101651278405 3.2549493963068175 1.6220101651278405 Q 3.2897394353693175 1.6220101651278405 3.3157071200284083 1.640154252485795 Q 3.341674804687499 1.6582983398437494 3.358653675426136 1.6925890003551132 Q 3.3919455788352266 1.759838645241477 3.3926114169034083 1.8883453924005678 Q 3.39327725497159 2.023510520241477 3.353992808948863 2.0987502219460223 Q 3.3153742009943175 2.172658247514204 3.2457941228693175 2.172658247514204 M 3.290405273437499 1.6611281516335223 Q 3.2747580788352266 1.6513070401278405 3.2557816938920445 1.6513070401278405 Q 3.236805308948863 1.6513070401278405 3.221491033380681 1.6611281516335223 Q 3.206176757812499 1.670949263139204 3.1936922940340904 1.6882610529119315 Q 3.181207830255681 1.7055728426846586 3.1717196377840904 1.7290436345880678 Q 3.162231445312499 1.752514426491477 3.155573064630681 1.7794808682528405 Q 3.142589222301136 1.8347454279119315 3.142589222301136 1.889843528053977 Q 3.142589222301136 1.9449416281960223 3.146750710227272 1.982228560014204 Q 3.1509121981534083 2.019515491832386 3.1582364169034083 2.046648393110795 Q 3.1655606356534083 2.073781294389204 3.175714666193181 2.0919253817471586 Q 3.1858686967329537 2.110069469105113 3.197520862926136 2.121055797230113 Q 3.2191606001420445 2.140698020241477 3.2491233132102266 2.140698020241477 Q 3.3376797762784083 2.140698020241477 3.35665616122159 1.9779006125710223 Q 3.360984108664772 1.9406136807528405 3.360984108664772 1.901995072798295 Q 3.360984108664772 1.8633764648437496 3.358653675426136 1.8344125088778405 Q 3.356323242187499 1.8054485529119315 3.35116299715909 1.7786485706676132 Q 3.346002752130681 1.751848588423295 3.3378462357954537 1.7285442560369315 Q 3.3296897194602266 1.7052399236505678 3.317871093749999 1.6880945933948859 Q 3.306052468039772 1.670949263139204 3.290405273437499 1.6611281516335223 M 3.4810014204545445 1.9925490500710223 L 3.4816672585227266 1.8517242986505678 Q 3.4816672585227266 1.7318734463778405 3.474010120738636 1.6486436878551132 Q 3.473011363636363 1.637990278764204 3.4793368252840904 1.632830033735795 Q 3.4856622869318175 1.627669788707386 3.4938188032670445 1.627669788707386 Q 3.501975319602272 1.627669788707386 3.5086337002840904 1.632830033735795 Q 3.5152920809659083 1.637990278764204 3.5146262428977266 1.655468528053977 Q 3.5139604048295445 1.6729467773437496 3.5131281072443175 1.6997467595880678 Q 3.5122958096590904 1.7265467418323859 3.5116299715909083 1.7565094549005678 Q 3.5102982954545445 1.8164348810369315 3.5102982954545445 1.865041060014204 Q 3.5102982954545445 1.913647238991477 3.5104647549715904 1.9314584073153405 Q 3.510631214488636 1.949269575639204 3.5109641335227266 1.9659155273437496 Q 3.512628728693181 2.0544719904119315 3.5209517045454537 2.078109241832386 Q 3.5292746803977266 2.1017464932528402 3.5402610085227266 2.114397416548295 Q 3.5622336647727266 2.139699263139204 3.596857244318181 2.139699263139204 Q 3.6324795809659083 2.139699263139204 3.655783913352272 2.1133986594460223 Q 3.6797540838068175 2.0860992986505678 3.6837491122159083 2.037160200639204 Q 3.6874112215909083 1.9772347745028405 3.6874112215909083 1.9409465997869313 Q 3.6874112215909083 1.9046584250710223 3.687244762073863 1.878191361860795 Q 3.6870783025568175 1.8517242986505678 3.686412464488636 1.8187653142755678 Q 3.6837491122159083 1.7228846324573859 3.681085759943181 1.6466461736505678 Q 3.68075284090909 1.6359927645596586 3.6867453835227266 1.630998979048295 Q 3.692737926136363 1.6260051935369315 3.7003950639204537 1.6260051935369315 Q 3.7080522017045445 1.6260051935369315 3.714377663352272 1.630998979048295 Q 3.720703124999999 1.6359927645596586 3.7203702059659083 1.6466461736505678 Q 3.7190385298295445 1.6962511097301132 3.718872070312499 1.744524369673295 Q 3.7187056107954537 1.792797629616477 3.718372691761363 1.840405051491477 Q 3.717706853693181 1.9559279563210223 3.714044744318181 2.006365189985795 Q 3.710382634943181 2.0568024236505678 3.702891956676136 2.0824371892755678 Q 3.69540127840909 2.1080719549005678 3.681418678977272 2.1280470969460223 Q 3.6501242897727266 2.172658247514204 3.597190163352272 2.172658247514204 Q 3.509632457386363 2.172658247514204 3.4879927201704537 2.0757788085937494 Q 3.4810014204545445 2.045483176491477 3.4810014204545445 2.008196244673295 L 3.4810014204545445 1.9925490500710223 M 3.8596968217329537 2.0105266779119315 Q 3.862360174005681 2.0860992986505678 3.864024769176136 2.1416967773437494 Q 3.8643576882102266 2.1530160245028402 3.85836514559659 2.1585091885653402 Q 3.8523726029829537 2.1640023526278402 3.84554776278409 2.1640023526278402 Q 3.8387229225852266 2.1640023526278402 3.8335626775568175 2.1588421075994315 Q 3.8284024325284083 2.1536818625710223 3.8284024325284083 2.143361372514204 L 3.8284024325284083 1.8930062588778405 Q 3.8284024325284083 1.7631678355823859 3.822076970880681 1.659962935014204 Q 3.8210782137784083 1.645314497514204 3.830067027698863 1.6396548739346586 Q 3.833729137073863 1.6373244406960223 3.8377241654829537 1.636825062144886 Q 3.8417191938920445 1.6363256835937494 3.855368874289772 1.6323306551846586 Q 3.889659534801136 1.6226760031960223 3.923450816761363 1.6226760031960223 Q 3.95724209872159 1.6226760031960223 3.979381214488636 1.6301666814630678 Q 4.001520330255681 1.6376573597301132 4.017167524857954 1.652971635298295 Q 4.050459428267045 1.685597700639204 4.050459428267045 1.7491852361505678 Q 4.050459428267045 1.8310833185369315 3.9858731356534083 1.9073217773437496 Q 3.97555264559659 1.9196397816051132 3.9639004794034083 1.9316248668323859 Q 3.9965265447443175 2.0315005770596586 4.0404718572443175 2.1353713156960223 Q 4.048461914062499 2.1533489435369315 4.032481800426136 2.161671919389204 Q 4.028486772017045 2.1636694335937494 4.02316006747159 2.1636694335937494 Q 4.0111749822443175 2.1636694335937494 4.006181196732954 2.1500197531960223 Q 3.9955277876420445 2.1190582830255678 3.986871892755681 2.090593705610795 Q 3.9782159978693175 2.0621291281960223 3.9698930220170445 2.0351626864346586 Q 3.9552445845170445 1.9865565074573859 3.942260742187499 1.9519329279119313 Q 3.905639648437499 1.9842260742187496 3.8596968217329537 2.0105266779119315 M 3.858698064630681 1.978899369673295 Q 3.9112992720170445 1.9482708185369313 3.95724209872159 1.8956696111505678 Q 4.018832120028408 1.8240920188210223 4.018832120028408 1.7521815074573859 Q 4.018832120028408 1.6776076438210223 3.966563831676136 1.6559679066051132 Q 3.9379327947443175 1.6439828213778405 3.8936545632102266 1.652638716264204 Q 3.872680664062499 1.656633744673295 3.859363902698863 1.6632921253551132 Q 3.855035955255681 1.763500754616477 3.855035955255681 1.8314162375710223 Q 3.855035955255681 1.9036596679687496 3.8552024147727266 1.9091528320312496 Q 3.855368874289772 1.9146459960937496 3.8555353338068175 1.919140403053977 Q 3.855701793323863 1.923634810014204 3.8560347123579537 1.9284621360085223 Q 3.8563676313920445 1.9332894620028405 3.856867009943181 1.942278275923295 Q 3.8573663884943175 1.9512670898437496 3.858032226562499 1.9655826083096586 Q 3.85836514559659 1.971575150923295 3.858698064630681 1.978899369673295 M 4.267855557528408 1.624007679332386 Q 4.288163618607953 1.624007679332386 4.288163618607953 1.652971635298295 Q 4.288163618607953 1.6922560813210223 4.2876642400568175 1.7357020152698859 Q 4.287164861505681 1.7791479492187496 4.28683194247159 1.8144373668323859 Q 4.286499023437499 1.8497267844460223 4.286166104403408 1.8966683682528405 Q 4.285500266335227 1.994213645241477 4.284834428267045 2.136037153764204 Q 4.351085316051136 2.1373688299005678 4.412009499289772 2.1313762872869315 Q 4.423994584517045 2.1300446111505678 4.430652965198862 2.136370072798295 Q 4.437311345880681 2.1426955344460223 4.437311345880681 2.1496868341619315 Q 4.437311345880681 2.1566781338778402 4.431318803267045 2.1618383789062494 Q 4.425326260653408 2.1669986239346586 4.413674094460227 2.166332785866477 Q 4.375721324573862 2.1633365145596586 4.331942471590908 2.165001109730113 Q 4.288163618607953 2.1666657049005678 4.279174804687499 2.1679973810369315 Q 4.270185990767045 2.169329057173295 4.266024502840908 2.1684967595880678 Q 4.261863014914772 2.1676644620028402 4.258533824573862 2.165001109730113 Q 4.251209605823862 2.1593414861505678 4.251875443892045 2.1483551580255678 Q 4.255870472301136 2.070452104048295 4.255870472301136 1.944775168678977 Q 4.255870472301136 1.8190982333096586 4.25570401278409 1.7893019797585223 Q 4.255537553267045 1.7595057262073859 4.254871715198862 1.7345367986505678 Q 4.253540039062499 1.6849318625710223 4.2492120916193175 1.645314497514204 Q 4.248213334517045 1.634661088423295 4.254205877130681 1.6293343838778405 Q 4.2601984197443175 1.624007679332386 4.267855557528408 1.624007679332386 M 4.55050381747159 1.728044877485795 Q 4.550337357954544 1.7461889648437496 4.550337357954544 1.8740298739346586 Q 4.550337357954544 2.0018707830255678 4.554332386363636 2.143028453480113 Q 4.554665305397727 2.1536818625710223 4.548173384232953 2.1593414861505678 Q 4.541681463068181 2.165001109730113 4.534523703835227 2.165001109730113 Q 4.527365944602272 2.165001109730113 4.521872780539772 2.1600073242187494 Q 4.516379616477272 2.155013538707386 4.517045454545453 2.1377017489346586 Q 4.517711292613636 2.1203899591619315 4.5183771306818175 2.0897614080255678 Q 4.519042968749999 2.059132856889204 4.519708806818181 2.0245092773437494 Q 4.521040482954544 1.9559279563210223 4.521040482954544 1.896501908735795 Q 4.521040482954544 1.8370758611505678 4.520874023437499 1.8039504172585223 Q 4.520707563920453 1.770824973366477 4.520041725852272 1.7428597745028405 Q 4.519042968749999 1.6809368341619315 4.516379616477272 1.6439828213778405 Q 4.515380859374999 1.6333294122869315 4.5202081853693175 1.6281691672585223 Q 4.525035511363636 1.6230089222301132 4.532692649147727 1.6230089222301132 Q 4.5403497869318175 1.6230089222301132 4.547008167613636 1.6281691672585223 Q 4.553666548295453 1.6333294122869315 4.5531671697443175 1.645647416548295 Q 4.552667791193181 1.6579654208096586 4.552168412642044 1.6699505060369315 Q 4.551669034090908 1.681935591264204 4.551169655539772 1.6959181906960223 Q 4.550670276988636 1.7099007901278405 4.55050381747159 1.728044877485795 M 5.000610351562498 1.7475206409801132 L 5.00094327059659 1.8677044122869313 Q 5.00094327059659 1.993547807173295 5.006269975142044 2.144360129616477 Q 5.006602894176135 2.155013538707386 5.000776811079544 2.1600073242187494 Q 4.994950727982953 2.165001109730113 4.987626509232953 2.165001109730113 Q 4.980302290482953 2.165001109730113 4.974309747869317 2.1593414861505678 Q 4.968317205255681 2.1536818625710223 4.968317205255681 2.143028453480113 Q 4.973310990767044 1.993214888139204 4.973310990767044 1.8933391779119313 L 4.973310990767044 1.7208871182528405 Q 4.973310990767044 1.7015778142755678 4.972978071732953 1.6845989435369315 Q 4.965653852982953 1.7128970614346586 4.954001686789772 1.7581740500710223 Q 4.927368164062498 1.857716841264204 4.91671475497159 1.8958360706676132 Q 4.906061345880681 1.9339553000710223 4.895407936789772 1.9709093128551132 Q 4.873435280539772 2.0471477716619315 4.85445889559659 2.1047427645596586 Q 4.852461381392044 2.111401145241477 4.846635298295453 2.114730335582386 Q 4.840809215198862 2.118059525923295 4.835482510653407 2.118059525923295 Q 4.82516202059659 2.118059525923295 4.82149991122159 2.1047427645596586 Q 4.819835316051135 2.099416060014204 4.813676313920453 2.078941539417613 Q 4.807517311789772 2.0584670188210223 4.798362038352272 2.028337846235795 Q 4.789206764914772 1.9982086736505678 4.778053977272726 1.9607552823153405 Q 4.766901189630681 1.9233018909801132 4.755082563920453 1.8840174449573859 Q 4.743263938210226 1.8447329989346586 4.731944691051135 1.8061143909801132 Q 4.720625443892044 1.7674957830255678 4.711303710937499 1.7348697176846586 Q 4.703646573153407 1.707903275923295 4.698319868607953 1.6882610529119315 L 4.698985706676135 1.770824973366477 Q 4.698985706676135 1.9216372958096586 4.702148437499999 2.0201813299005678 Q 4.705311168323862 2.118725363991477 4.705644087357953 2.1347054776278402 Q 4.705977006392044 2.150685591264204 4.704145951704544 2.154347700639204 Q 4.702314897017044 2.158009810014204 4.699318625710226 2.1603402432528402 Q 4.686334783380681 2.1713265713778402 4.673683860085226 2.1596744051846586 Q 4.66769131747159 2.154014781605113 4.668523615056817 2.139699263139204 Q 4.669355912642044 2.125383744673295 4.670021750710226 2.1039104669744315 Q 4.670687588778407 2.0824371892755678 4.671020507812499 2.0584670188210223 Q 4.672352183948862 2.0018707830255678 4.672352183948862 1.9535975230823859 L 4.668357155539772 1.6506412020596586 Q 4.668357155539772 1.6356598455255678 4.675348455255681 1.629500843394886 Q 4.68233975497159 1.623341841264204 4.691661487926135 1.623341841264204 Q 4.709306196732953 1.623341841264204 4.715964577414772 1.6446486594460223 Q 4.716630415482953 1.6466461736505678 4.719460227272726 1.6564672851562494 Q 4.722290039062499 1.6662883966619315 4.726950905539772 1.6821020507812496 Q 4.731611772017044 1.6979157049005678 4.737770774147726 1.7187231445312496 Q 4.743929776278407 1.7395305841619315 4.750921075994317 1.763500754616477 Q 4.757912375710226 1.7874709250710223 4.765569513494317 1.813771528764204 Q 4.79220303622159 1.905324263139204 4.839144620028407 2.0644595614346586 Q 4.863780628551135 1.994213645241477 4.930031516335226 1.7458560458096586 Q 4.943015358664772 1.696584028764204 4.955999200994317 1.645314497514204 Q 4.961991743607953 1.6223430841619315 4.983631480823862 1.6223430841619315 Q 4.992287375710226 1.6223430841619315 4.997447620738635 1.6308325195312494 Q 5.002607865767044 1.6393219549005678 5.001942027698862 1.6553020685369315 Q 5.000610351562498 1.6776076438210223 5.000610351562498 1.7475206409801132 M 5.154418945312498 1.728044877485795 Q 5.154252485795452 1.7461889648437496 5.154252485795452 1.8740298739346586 Q 5.154252485795452 2.0018707830255678 5.158247514204544 2.143028453480113 Q 5.158580433238635 2.1536818625710223 5.1520885120738615 2.1593414861505678 Q 5.145596590909089 2.165001109730113 5.138438831676135 2.165001109730113 Q 5.13128107244318 2.165001109730113 5.12578790838068 2.1600073242187494 Q 5.12029474431818 2.155013538707386 5.1209605823863615 2.1377017489346586 Q 5.121626420454544 2.1203899591619315 5.122292258522726 2.0897614080255678 Q 5.122958096590907 2.059132856889204 5.123623934659089 2.0245092773437494 Q 5.124955610795452 1.9559279563210223 5.124955610795452 1.896501908735795 Q 5.124955610795452 1.8370758611505678 5.124789151278407 1.8039504172585223 Q 5.1246226917613615 1.770824973366477 5.12395685369318 1.7428597745028405 Q 5.122958096590907 1.6809368341619315 5.12029474431818 1.6439828213778405 Q 5.119295987215907 1.6333294122869315 5.124123313210226 1.6281691672585223 Q 5.128950639204544 1.6230089222301132 5.136607776988635 1.6230089222301132 Q 5.144264914772726 1.6230089222301132 5.150923295454544 1.6281691672585223 Q 5.1575816761363615 1.6333294122869315 5.157082297585226 1.645647416548295 Q 5.156582919034089 1.6579654208096586 5.156083540482952 1.6699505060369315 Q 5.155584161931817 1.681935591264204 5.15508478338068 1.6959181906960223 Q 5.154585404829544 1.7099007901278405 5.154418945312498 1.728044877485795 M 5.328535600142043 1.6266710316051132 Q 5.337857333096589 1.6266710316051132 5.448386452414771 1.624007679332386 Q 5.463700727982952 1.624007679332386 5.469360351562498 1.6356598455255678 Q 5.4706920276988615 1.638989035866477 5.4706920276988615 1.6433169833096586 Q 5.4706920276988615 1.6476449307528405 5.465698242187498 1.6521393377130678 Q 5.460704456676134 1.656633744673295 5.447054776278407 1.656300825639204 Q 5.43340509588068 1.6559679066051132 5.42058771306818 1.6553020685369315 Q 5.40777033025568 1.6546362304687494 5.39678400213068 1.6543033114346586 Q 5.377141779119316 1.653637473366477 5.363159179687498 1.6539703924005678 Q 5.360495827414771 1.730541770241477 5.360495827414771 1.8200969904119315 Q 5.360495827414771 1.9159776722301132 5.360662286931816 1.951433549360795 Q 5.3608287464488615 1.986889426491477 5.361494584517043 2.019182572798295 Q 5.362493341619316 2.1017464932528402 5.363492098721589 2.1416967773437494 Q 5.36382501775568 2.1530160245028402 5.35833185369318 2.1585091885653402 Q 5.35283868963068 2.1640023526278402 5.346346768465907 2.1640023526278402 Q 5.339854847301134 2.1640023526278402 5.333695845170452 2.1588421075994315 Q 5.327536843039771 2.1536818625710223 5.327536843039771 2.143361372514204 L 5.32720392400568 2.099748979048295 L 5.330533114346589 1.781811301491477 Q 5.330533114346589 1.692921919389204 5.328202681107952 1.6539703924005678 Q 5.310557972301134 1.653637473366477 5.286254882812498 1.6553020685369315 Q 5.25762384588068 1.657299582741477 5.24480646306818 1.658131880326704 Q 5.23198908025568 1.6589641779119315 5.226662375710225 1.6539703924005678 Q 5.221335671164771 1.648976606889204 5.221335671164771 1.6424846857244315 Q 5.221335671164771 1.6359927645596586 5.226662375710225 1.6296673029119315 Q 5.23198908025568 1.623341841264204 5.243807705965907 1.6238412198153405 Q 5.255626331676134 1.624340598366477 5.264282226562498 1.6246735174005678 Q 5.2729381214488615 1.6250064364346586 5.279430042613634 1.6253393554687494 Q 5.285921963778407 1.6256722745028405 5.290915749289771 1.6260051935369315 Q 5.295909534801134 1.6263381125710223 5.301069779829543 1.6265045720880678 Q 5.306230024857952 1.6266710316051132 5.312888405539771 1.6266710316051132 L 5.328535600142043 1.6266710316051132 M 5.5164683948863615 2.012191273082386 Q 5.528120561079544 2.012191273082386 5.5311168323863615 2.0211800870028407 Q 5.53411310369318 2.030168900923295 5.53411310369318 2.0508098810369315 Q 5.53411310369318 2.0714508611505678 5.539772727272726 2.089428488991477 Q 5.545432350852271 2.107406116832386 5.555419921874998 2.1197241210937494 Q 5.575727982954544 2.144360129616477 5.6116832386363615 2.144360129616477 Q 5.64763849431818 2.144360129616477 5.668945312499998 2.1178930664062494 Q 5.690252130681817 2.0914260031960223 5.690252130681817 2.041821067116477 Q 5.690252130681817 1.9755701793323859 5.633988813920452 1.923967729048295 Q 5.618008700284089 1.909319291548295 5.601196289062498 1.8950037730823859 Q 5.584383877840907 1.880688254616477 5.568403764204544 1.865373979048295 Q 5.55242365056818 1.8500597034801132 5.539772727272726 1.8314162375710223 Q 5.51214044744318 1.7904671963778405 5.51214044744318 1.7381989080255678 Q 5.51214044744318 1.6845989435369315 5.543767755681817 1.6516399591619315 Q 5.5750621448863615 1.6190138938210223 5.622336647727271 1.6190138938210223 Q 5.6629527698863615 1.6190138938210223 5.688920454545452 1.646313254616477 Q 5.7178844105113615 1.6776076438210223 5.715553977272726 1.7328722034801132 Q 5.715221058238635 1.7355355557528405 5.71538751775568 1.7385318270596586 Q 5.715553977272726 1.741528098366477 5.714721679687498 1.7498510742187496 Q 5.713889382102271 1.7581740500710223 5.707730379971589 1.764665971235795 Q 5.701571377840907 1.7711578924005678 5.694413618607952 1.7711578924005678 Q 5.687255859374998 1.7711578924005678 5.682262073863635 1.764665971235795 Q 5.677268288352271 1.7581740500710223 5.678932883522726 1.7475206409801132 Q 5.683260830965907 1.723217551491477 5.683260830965907 1.7107330877130678 Q 5.683260830965907 1.6982486239346586 5.67876642400568 1.6869293767755678 Q 5.674272017045452 1.675610129616477 5.66594904119318 1.6669542347301132 Q 5.647971413352271 1.6486436878551132 5.619340376420452 1.6486436878551132 Q 5.587713068181817 1.6486436878551132 5.5677379261363615 1.6702834250710223 Q 5.5457652698863615 1.6942535955255678 5.5457652698863615 1.7292100941051132 Q 5.5457652698863615 1.7641665926846586 5.553422407670452 1.7856398703835223 Q 5.561079545454544 1.8071131480823859 5.573564009232952 1.8244249378551132 Q 5.5860484730113615 1.8417367276278405 5.602028586647726 1.8560522460937496 Q 5.618008700284089 1.8703677645596586 5.634488192471589 1.884350363991477 Q 5.650967684659089 1.898332963423295 5.666947798295452 1.9131478604403405 Q 5.682927911931817 1.9279627574573859 5.695578835227271 1.945940385298295 Q 5.723211115056817 1.9865565074573859 5.723211115056817 2.0394906338778407 Q 5.723211115056817 2.1014135742187494 5.691250887784089 2.1383675870028402 Q 5.659623579545452 2.1749886807528402 5.606689453124998 2.1749886807528402 Q 5.557417436079544 2.1749886807528402 5.526455965909089 2.137035910866477 Q 5.497159090909089 2.1014135742187494 5.497159090909089 2.0568024236505678 Q 5.497159090909089 2.012191273082386 5.5164683948863615 2.012191273082386" fill="#bd2949" fill-rule="nonzero"></path></g><g clip-path="url(#SvgjsClipPath1141)"><g clip-path="url(#SvgjsClipPath1140742fab6a-eac9-4aa7-8859-511521cae5f2)"><path d=" M -1.7474785382519764 0.7718509514424212 C -1.748469812573616 0.7768073230506183 -1.748469812573616 0.7817636946588153 -1.7494610868952551 0.7867200662670124 C -1.778208042222797 1.0117393372791552 -1.7246792288542707 1.2407237055778553 -1.5997786643277068 1.4300571010109793 L -1.3648466500991696 1.7869158568011616 C -1.2389548112509647 1.9782318008775652 -1.0476388671745633 2.1150276572638016 -0.8285672420922561 2.1794604881703625 C -0.8265846934489769 2.180451762492002 -0.8246021448056986 2.180451762492002 -0.8216283218407794 2.1814430368136417 C -0.5480366090683066 2.2657013541529896 -0.36960723117321503 2.5392930669254627 -0.40430183243059403 2.823788797235969 C -0.4479179025827271 3.1905602962425457 -0.8077504813378287 3.4304486820792794 -1.1636179628063719 3.330329975593701 C -1.4411747728654016 3.2520193041841887 -1.62555179669033 2.9804101400549934 -1.595813567041148 2.693931861101209 C -1.5948222927195084 2.6889754894930116 -1.5948222927195084 2.684019117884815 -1.5938310183978688 2.6790627462766183 C -1.565084063070326 2.4540434752644753 -1.6186128764388537 2.225059106965775 -1.7435134409654176 2.03572571153265 L -1.9784454551939539 1.6788669557424676 C -2.1043372940421574 1.4875510116660648 -2.29565323811856 1.3507551552798276 -2.5147248632008674 1.286322324373267 C -2.5167074118441457 1.285331050051628 -2.5186899604874244 1.285331050051628 -2.521663783452343 1.2843397757299888 C -2.795255496224816 1.20008145839064 -2.9736848741199076 0.9264897456181664 -2.9389902728625286 0.6419940153076604 C -2.8953742027103955 0.27522251630108396 -2.5355416239552953 0.03533413046435063 -2.179674142486752 0.1354528369499295 C -1.903108606749361 0.21376350835944202 -1.717740308602794 0.485372672488636 -1.7474785382519764 0.7718509514424212 Z" fill="#0e1425" transform="matrix(1,0,0,1,0,0)" fill-rule="nonzero"></path></g><g clip-path="url(#SvgjsClipPath1140742fab6a-eac9-4aa7-8859-511521cae5f2)"><path d=" M -2.436414191791356 -0.030089974763849447 C -2.441370563399553 -0.02810742612057071 -2.44533566068611 -0.027116151798931343 -2.4502920322943074 -0.025133603155652384 C -2.664407285768417 0.051194519610580747 -2.843827937985147 0.20186821649976938 -2.956833210652039 0.39913180650600855 L -3.1689659154828695 0.7708596771207818 C -3.2829624624714 0.9691145414486608 -3.318648338050418 1.2020640070339188 -3.2770148165415627 1.4270832780460614 C -3.2770148165415627 1.4290658266893397 -3.2760235422199235 1.4320396496542585 -3.2760235422199235 1.4340221982975367 C -3.2274511004595934 1.7165353799647645 -3.3910113635300934 1.9980572873103521 -3.6606379790160086 2.096193445152653 C -4.008575265911436 2.223076558322496 -4.384268233812767 2.010943853491665 -4.455639984970804 1.647146177450007 C -4.51115134698261 1.3646329957827792 -4.352547455520306 1.0771634425073549 -4.082920840034391 0.9740709130568579 C -4.0779644684261935 0.9720883644135792 -4.073999371139636 0.9710970900919396 -4.069042999531439 0.9691145414486608 C -3.85492774605733 0.8927864186824279 -3.6755070938406 0.7421127217932391 -3.5625018211737083 0.5448491317869997 L -3.3503691163428777 0.17411253549386574 C -3.236372569354347 -0.024142328834013238 -3.200686693775329 -0.2570917944192712 -3.242320215284184 -0.48211106543141413 C -3.242320215284184 -0.48409361407469265 -3.2433114896058237 -0.4870674370396112 -3.2433114896058237 -0.4890499856828897 C -3.2918839313661534 -0.7715631673501173 -3.1283236682956534 -1.0530850746957057 -2.8586970528097377 -1.1512212325380056 C -2.5107597659143095 -1.2781043457078483 -2.135066798012979 -1.0659716408770177 -2.0636950468549435 -0.7021739648353595 C -2.008183684843137 -0.4206520574897712 -2.16678757630544 -0.13318250421434663 -2.436414191791356 -0.030089974763849447 Z" fill="#bd2949" transform="matrix(1,0,0,1,0,0)" fill-rule="nonzero"></path></g><g clip-path="url(#SvgjsClipPath1140742fab6a-eac9-4aa7-8859-511521cae5f2)"><path d=" M -4.370390393309816 2.06843776414675 C -4.368407844666538 2.070420312790029 -4.366425296023259 2.0714115871116685 -4.36543402170162 2.0733941357549472 C -4.187995918128168 2.2280329299306936 -3.962976647116025 2.3182388931998776 -3.7270533585658496 2.3192301675215172 L -3.324595983980254 2.320221441843157 C -3.0946203413599154 2.321212716164797 -2.8735661676343294 2.236954398825448 -2.697119338382517 2.089254524901178 C -2.6951367897392378 2.0882632505795384 -2.69315424109596 2.0862807019362593 -2.6921629667743203 2.08528942761462 C -2.4701175187270956 1.903886226754611 -2.1429969925860948 1.907851324041169 -1.9249166418254275 2.094210896509375 C -1.643394734479839 2.3360818309893867 -1.6443860088014794 2.7682774352241633 -1.9278904647903459 3.0081658210608966 C -2.1469620898726522 3.193534119207464 -2.4740826160136526 3.195516667850743 -2.6951367897392378 3.013122192669094 C -2.697119338382517 3.012130918347454 -2.6991018870257957 3.0101483697041758 -2.7000931613474353 3.0091570953825366 C -2.875548716277608 2.8604659471366274 -3.096602890003193 2.7752163554756395 -3.3265785326235333 2.774225081154 L -3.763730508466507 2.7732338068323608 C -3.9907323281219282 2.772242532510721 -4.2088126788825955 2.8535270268851516 -4.385259508134408 2.995279254879584 C -4.387242056777686 2.996270529201225 -4.389224605420965 2.9982530778445025 -4.3902158797426045 2.9992443521661425 C -4.613252602111468 3.174699907096315 -4.935416756644272 3.166769712523199 -5.150523284440021 2.9804101400549934 C -5.429071368820691 2.7395304798966205 -5.428080094499052 2.3083261499834835 -5.147549461475102 2.0694290384683893 C -4.924512739106238 1.8791043687136257 -4.592435841357041 1.8800956430352653 -4.370390393309816 2.06843776414675 Z" fill="#de6d2e" transform="matrix(1,0,0,1,0,0)" fill-rule="nonzero"></path></g></g></g><defs><clipPath id="SvgjsClipPath1141"><path d=" M -5.358693528352171 -1.1881717653180832 h 4.95869352835217 v 4.54134464036628 h -4.95869352835217 Z"></path></clipPath><clipPath id="SvgjsClipPath1140742fab6a-eac9-4aa7-8859-511521cae5f2"><path d=" M -5.358693528352171 -1.1881717653180832 L -0.40000000000000036 -1.1881717653180832 L -0.40000000000000036 3.3531728750481964 L -5.358693528352171 3.3531728750481964 Z"></path></clipPath></defs></svg>